<svg width="206" height="275" viewBox="0 0 206 275" fill="none" xmlns="http://www.w3.org/2000/svg">
<path d="M123.876 113.178C117.2 114.356 109.47 117.242 102.928 115.015C97.0758 113.022 94.9623 106.621 91.4803 102.149C88.5945 98.4431 85.6749 95.1348 84.8285 90.3399C83.7998 84.5115 80.8589 76.7972 82.5142 70.9987C84.0164 65.7365 87.2287 62.1698 90.0336 57.5341C92.7555 53.0354 94.4446 50.2758 97.6013 46.26C100.508 42.5619 109.311 39.3606 113.635 38.1437C119.165 36.587 125.15 36.0688 130.812 35.0695C139.759 33.4902 146.613 47.3637 150.923 53.1724C154.029 57.3576 156.325 59.813 157.254 65.0804C158.477 72.0074 159.324 77.28 158.162 84.1201C157.891 85.7177 156.956 87.6534 155.61 88.5882C152.472 90.7677 151.094 94.3235 148.901 97.3001C146.811 100.135 145.401 104.168 142.448 106.263C137.841 109.532 129.594 112.93 124.007 113.916" stroke="#4C5B5C" stroke-width="6" stroke-linecap="round"/>
<path d="M124.614 113.048C126.067 121.278 127.52 129.507 128.972 137.737C130.24 144.921 131.374 151.875 131.82 159.141C132.301 166.987 133.674 174.934 133.539 182.774C133.482 186.045 134.052 189.229 133.652 192.523C133.117 196.933 134.237 200.778 134.417 205.245C134.615 210.132 133.779 208.608 131.426 212.497C129.389 215.863 125.567 221.951 126.312 226.171" stroke="#4C5B5C" stroke-width="6" stroke-linecap="round"/>
<path d="M126.312 226.171C109.89 229.07 91.8249 230.015 76.6384 237.054C64.4781 242.69 52.5226 248.62 40.8081 254.966" stroke="#4C5B5C" stroke-width="6" stroke-linecap="round"/>
<path d="M126.182 225.433C129.34 238.009 144.783 246.002 152.108 255.874" stroke="#4C5B5C" stroke-width="6" stroke-linecap="round"/>
<path d="M131.651 152.912L187.756 143.009" stroke="#4C5B5C" stroke-width="6" stroke-linecap="round"/>
<path d="M127.829 152.825C118.592 154.105 109.501 148.113 101.672 144.079C93.7364 139.989 85.3926 133.915 76.8469 131.375" stroke="#4C5B5C" stroke-width="6" stroke-linecap="round"/>
<path d="M106.243 60.7204L108.719 74.7468" stroke="#4C5B5C" stroke-width="6" stroke-linecap="round"/>
<path d="M126.306 57.9405L128.652 71.2286" stroke="#4C5B5C" stroke-width="6" stroke-linecap="round"/>
<path d="M99.5568 83.2152C100.968 91.2097 111.357 98.6407 119.369 97.2264C124.429 96.3333 131.352 94.0752 134.544 89.5154C136.43 86.8201 138.393 79.8638 140.55 78.2631" stroke="#4C5B5C" stroke-width="6" stroke-linecap="round"/>
<path d="M103.549 10.9548L108.892 41.2222" stroke="#4C5B5C" stroke-width="6" stroke-linecap="round"/>
<path d="M120.79 22.3751C121.906 28.7022 123.162 34.8517 121.833 41.2218" stroke="#4C5B5C" stroke-width="6" stroke-linecap="round"/>
<path d="M134.382 39.0066C130.727 38.7493 139.239 28.5574 140.071 28.1066" stroke="#4C5B5C" stroke-width="6" stroke-linecap="round"/>
</svg>
